<svg xmlns="http://www.w3.org/2000/svg" width="100" height="100" viewBox="0 0 100 100" role="img" aria-label="UFC">
  <defs>
    <radialGradient id="uf-3d" cx="0.3" cy="0.25" r="0.9">
      <stop offset="0%" stop-color="#FF4444"/>
      <stop offset="50%" stop-color="#CC0000"/>
      <stop offset="100%" stop-color="#660000"/>
    </radialGradient>
    <filter id="uf-shadow" x="-20%" y="-20%" width="140%" height="140%">
      <feDropShadow dx="1" dy="3" stdDeviation="3" flood-color="#000000" flood-opacity="0.6"/>
    </filter>
  </defs>
  <g filter="url(#uf-shadow)">
    <path d="M 35 20 Q 50 10 65 20 L 70 45 Q 72 55 65 65 L 60 80 Q 50 88 40 80 L 35 65 Q 28 55 30 45 Z" fill="url(#uf-3d)"/>
    <ellipse cx="45" cy="35" rx="8" ry="5" fill="#FFFFFF" opacity="0.15"/>
    <rect x="40" y="25" width="6" height="20" rx="2" fill="#1a1a1a" opacity="0.6"/>
    <rect x="48" y="23" width="6" height="22" rx="2" fill="#1a1a1a" opacity="0.6"/>
    <rect x="56" y="25" width="6" height="20" rx="2" fill="#1a1a1a" opacity="0.6"/>
    <rect x="35" y="55" width="35" height="8" rx="4" fill="#1a1a1a" opacity="0.5"/>
    <path d="M 30 50 L 25 55" stroke="#1a1a1a" stroke-width="3" stroke-linecap="round"/>
  </g>
</svg>